HIERARCHY
ROOT root
{
	OFFSET 0.000000 0.000000 0.000000
	CHANNELS 6 Xposition Yposition Zposition Zrotation Yrotation Xrotation
	JOINT lhip
	{
		OFFSET 0.058581 -0.082280 -0.017664
		CHANNELS 3 Zrotation Yrotation Xrotation
		JOINT lknee
		{
			OFFSET 0.043451 -0.386469 0.008037
			CHANNELS 3 Zrotation Yrotation Xrotation
			JOINT lankle
			{
				OFFSET -0.014790 -0.426874 -0.037428
				CHANNELS 3 Zrotation Yrotation Xrotation
				JOINT ltoe
				{
					OFFSET 0.041054 -0.060286 0.122042
					CHANNELS 3 Zrotation Yrotation Xrotation
					End Site
					{
						OFFSET 0.000000 0.000000 0.000000
					}
				}
			}
		}
	}
	JOINT rhip
	{
		OFFSET -0.060310 -0.090513 -0.013543
		CHANNELS 3 Zrotation Yrotation Xrotation
		JOINT rknee
		{
			OFFSET -0.043257 -0.383688 -0.004843
			CHANNELS 3 Zrotation Yrotation Xrotation
			JOINT rankle
			{
				OFFSET 0.019056 -0.420046 -0.034562
				CHANNELS 3 Zrotation Yrotation Xrotation
				JOINT rtoe
				{
					OFFSET -0.034840 -0.062106 0.130323
					CHANNELS 3 Zrotation Yrotation Xrotation
					End Site
					{
						OFFSET 0.000000 0.000000 0.000000
					}
				}
			}
		}
	}
	JOINT lowerback
	{
		OFFSET 0.004439 0.124404 -0.038385
		CHANNELS 3 Zrotation Yrotation Xrotation
		JOINT upperback
		{
			OFFSET 0.004488 0.137956 0.026820
			CHANNELS 3 Zrotation Yrotation Xrotation
			JOINT chest
			{
				OFFSET -0.002265 0.056032 0.002855
				CHANNELS 3 Zrotation Yrotation Xrotation
				JOINT lowerneck
				{
					OFFSET -0.013390 0.211636 -0.033468
					CHANNELS 3 Zrotation Yrotation Xrotation
					JOINT upperneck
					{
						OFFSET 0.010113 0.088937 0.050410
						CHANNELS 3 Zrotation Yrotation Xrotation
						End Site
						{
							OFFSET 0.000000 0.000000 0.000000
						}
					}
				}
				JOINT lclavicle
				{
					OFFSET 0.071702 0.114000 -0.018898
					CHANNELS 3 Zrotation Yrotation Xrotation
					JOINT lshoulder
					{
						OFFSET 0.122921 0.045205 -0.019046
						CHANNELS 3 Zrotation Yrotation Xrotation
						JOINT lelbow
						{
							OFFSET 0.255332 -0.015649 -0.022946
							CHANNELS 3 Zrotation Yrotation Xrotation
							JOINT lwrist
							{
								OFFSET 0.265709 0.012698 -0.007375
								CHANNELS 3 Zrotation Yrotation Xrotation
								End Site
								{
									OFFSET 0.000000 0.000000 0.000000
								}
							}
						}
					}
				}
				JOINT rclavicle
				{
					OFFSET -0.082954 0.112472 -0.023707
					CHANNELS 3 Zrotation Yrotation Xrotation
					JOINT rshoulder
					{
						OFFSET -0.113228 0.046853 -0.008472
						CHANNELS 3 Zrotation Yrotation Xrotation
						JOINT relbow
						{
							OFFSET -0.260127 -0.014369 -0.031269
							CHANNELS 3 Zrotation Yrotation Xrotation
							JOINT rwrist
							{
								OFFSET -0.269108 0.006794 -0.006027
								CHANNELS 3 Zrotation Yrotation Xrotation
								End Site
								{
									OFFSET 0.000000 0.000000 0.000000
								}
							}
						}
					}
				}
			}
		}
	}
}
MOTION
Frames: 12
Frame Time: 0.033333
0.058245 0.681646 0.244001 129.709337 56.736739 42.719425 7.324382 10.368933 -59.496558 -8.632655 36.047215 127.041132 4.816257 -7.013118 -11.170450 0.000000 -0.000000 0.000000 -15.990921 -1.839631 -34.744172 0.396276 -2.539806 86.967679 -2.296364 -18.561491 -14.573585 0.000000 -0.000000 0.000000 0.632291 1.269136 35.440305 8.804241 -7.524702 1.195489 1.357929 -3.537467 5.705471 -2.357656 -6.651180 13.913967 11.729246 -2.214032 -5.046339 -8.008131 -15.544317 4.492556 -9.025896 -1.995993 -3.146959 -6.727152 -61.492979 19.534479 -2.443655 -23.795955 8.172146 11.828810 7.908230 2.957487 37.421262 -18.555781 -8.348329 -19.254445 14.227243 -17.752287 32.415058 8.211405 -2.591417 
0.039000 0.698851 0.231891 120.758102 61.192930 30.327806 10.373835 9.960157 -55.260392 -6.715415 31.603752 127.699177 0.910407 -6.377463 -10.302759 0.000000 -0.000000 0.000000 -14.876150 -3.958507 -42.998059 -0.151582 -8.425494 73.558561 -1.313014 -16.929661 -12.930610 0.000000 -0.000000 0.000000 -0.047125 -1.186610 36.438332 10.259030 -8.790698 1.447850 2.578138 -4.675167 6.088679 -1.191877 -3.433238 16.937051 11.500459 -2.705267 -5.579059 -6.670292 -14.792102 5.938780 -9.286081 -2.666260 -3.765557 -7.203878 -56.962281 18.780824 -7.703928 -23.548487 8.044288 13.066321 5.474997 3.921215 38.029170 -17.285857 -7.883174 -20.508241 18.704501 -18.679080 28.392224 10.612565 -6.400847 
0.019256 0.715463 0.214039 107.440205 63.903822 13.357220 13.642050 10.771673 -51.563606 -5.791689 27.269109 127.500769 -2.926979 -4.919986 -9.471437 0.000000 -0.000000 0.000000 -14.106736 -4.406936 -49.236803 -0.240846 -10.282951 58.744007 -0.118015 -15.537983 -11.331591 0.000000 -0.000000 0.000000 -0.515984 -3.519868 38.582606 11.492669 -9.975164 1.368140 4.291034 -5.863577 6.363449 -1.137179 -1.751651 20.271948 11.257195 -2.321510 -6.845920 -5.231649 -14.332303 7.973618 -12.367373 -2.150983 -4.748962 -4.711816 -53.146001 15.221694 -12.055331 -21.893681 7.643892 12.346064 4.336182 4.827638 37.154582 -16.270843 -8.626741 -21.736213 23.649290 -19.546689 25.971270 13.143547 -7.947179 
-0.000618 0.729781 0.202097 90.056566 65.688159 -7.631594 17.708827 12.788679 -48.756423 -7.421644 21.592794 125.221985 -5.926386 -3.845181 -9.066240 0.000000 -0.000000 0.000000 -15.393382 -2.508944 -53.520484 -1.176193 -7.342724 44.624267 0.096619 -14.491980 -10.013752 0.000000 -0.000000 0.000000 -1.316511 -6.041783 40.512259 13.161632 -11.858553 1.667745 6.083765 -7.164437 6.200550 -2.056379 -0.964153 24.715578 11.013080 -2.185589 -7.357367 -3.795241 -14.604321 9.848311 -16.886368 -1.159624 -6.185972 -2.140859 -47.015624 14.216763 -14.303399 -19.279133 7.182003 11.020889 4.360382 6.133864 35.668147 -14.164189 -9.699217 -23.735419 28.719412 -17.937590 25.927809 13.071058 -8.032706 
-0.020927 0.741328 0.201573 68.628026 66.117781 -32.008635 22.903137 15.008000 -47.048001 -9.909517 14.591241 120.127924 -9.156449 -2.387576 -9.851609 0.000000 -0.000000 0.000000 -19.758150 -2.891141 -56.382335 -2.377976 -4.740090 33.565695 2.068411 -12.281424 -11.794951 0.000000 -0.000000 0.000000 -1.814432 -9.395553 42.192480 14.649942 -14.193382 1.155652 7.033985 -8.109936 5.280207 -1.942393 -0.236924 29.248391 10.282266 -2.947946 -5.202411 -3.552063 -15.172669 10.982470 -19.588474 -1.734079 -7.777175 -2.424309 -36.774191 17.326510 -16.361126 -18.207181 7.166222 11.052655 3.979557 7.506773 33.225001 -11.495399 -10.566229 -24.261711 34.399221 -15.898821 20.113529 15.451315 -10.610257 
-0.041080 0.750289 0.210784 52.418562 61.384315 -50.630059 29.115749 20.547384 -45.951420 -10.929429 6.979045 112.143604 -11.254696 -1.647801 -10.899738 0.000000 -0.000000 0.000000 -23.394804 -6.743998 -59.449388 -1.588890 -4.903705 24.682129 3.654077 -9.175260 -11.918120 0.000000 -0.000000 0.000000 -0.850252 -11.630930 43.499372 14.417013 -14.315097 -0.423472 6.788861 -9.230374 5.323529 -1.074460 0.264455 29.678339 10.032986 -4.450608 -1.262346 -3.374252 -14.854257 11.352481 -21.398052 -4.147386 -9.721217 -2.490249 -27.073643 21.685548 -15.575206 -16.926463 8.438506 11.347929 2.699567 7.739843 31.660403 -8.685990 -12.200671 -23.722476 40.467311 -13.440041 12.760533 19.493616 -12.803967 
-0.062906 0.755260 0.227755 49.032123 53.886787 -57.393471 34.316324 30.092389 -43.854691 -13.071078 1.095486 102.108923 -12.216727 -4.072672 -14.159894 0.000000 -0.000000 0.000000 -24.843403 -10.574852 -64.017038 -1.632929 -3.233518 18.217555 5.143902 -6.903984 -9.243677 0.000000 -0.000000 0.000000 0.436936 -12.771545 46.784588 11.964842 -12.041897 -2.738334 5.648208 -9.291320 5.707524 -2.131195 0.580994 24.470178 9.965288 -5.684509 1.716706 -3.641789 -14.052020 10.909202 -21.621389 -4.319143 -11.985477 -3.472150 -21.459565 25.204507 -13.064600 -15.857656 10.680340 11.391447 1.818698 7.325708 32.449253 -7.717440 -14.249341 -26.239280 47.768001 -14.998496 9.290077 21.743239 -12.171047 
-0.087858 0.757380 0.247415 46.706697 49.431491 -63.637051 35.941071 36.704981 -45.112127 -13.422236 -2.278931 92.075943 -11.858455 -9.515298 -17.702099 0.000000 -0.000000 0.000000 -27.440701 -17.342818 -66.365372 -2.689046 -1.035626 14.710606 7.036294 -5.214017 -6.727141 0.000000 -0.000000 0.000000 0.985570 -12.714077 50.989125 10.725889 -11.445534 -2.949840 5.794973 -8.303373 4.423913 -4.514093 -0.602712 19.926932 10.653178 -5.915441 -1.162616 -5.527564 -15.459411 11.628240 -20.169449 -2.080684 -13.836618 -4.170090 -19.200472 28.291762 -10.761799 -16.097003 13.120675 12.027682 3.383409 8.698670 32.519753 -10.009164 -16.907854 -33.550393 53.750100 -23.563349 4.927566 24.003054 -10.909282 
-0.115838 0.759631 0.266680 41.945719 46.014455 -71.705976 37.488988 37.590147 -48.386687 -12.126633 0.558694 79.678321 -9.153006 -9.431500 -19.494160 0.000000 -0.000000 0.000000 -34.110508 -24.934206 -62.044462 -2.589101 -1.380238 10.566681 9.281028 -5.140746 -5.228172 0.000000 -0.000000 0.000000 2.455759 -11.768068 53.356726 11.064092 -11.854784 -1.742866 6.022927 -7.621722 2.605346 -5.686616 -2.717101 19.289216 11.278877 -7.048895 -1.145931 -7.219800 -17.753415 13.253234 -18.305242 -2.396648 -14.487372 -4.950903 -15.649797 30.642067 -9.158683 -17.091025 13.701672 13.195779 5.901216 10.922488 30.188486 -11.126223 -18.118118 -39.695300 53.289663 -30.860754 1.439271 26.290910 -8.649887 
-0.146005 0.761784 0.289522 39.639817 40.656599 -76.515626 38.102931 40.309097 -52.547184 -9.630302 5.410690 65.078577 -6.382976 -3.106309 -20.379739 0.000000 -0.000000 0.000000 -41.239375 -28.160484 -54.077807 -3.186616 -1.864773 5.598579 9.539376 -6.781000 -4.443870 0.000000 -0.000000 0.000000 3.969398 -10.545798 54.574105 10.795838 -11.348229 -2.950991 5.655994 -7.195777 2.913186 -7.709935 -5.061768 20.878815 11.086078 -8.253386 2.494048 -8.548196 -18.308470 14.406336 -16.576553 -2.332708 -14.673437 -6.033297 -13.135425 32.874381 -6.404240 -17.184560 13.078643 13.887375 8.315364 12.049675 26.936143 -9.405236 -18.315071 -40.272878 51.212469 -32.801080 -2.740736 27.505128 -8.133203 
-0.178721 0.762116 0.316722 40.102043 34.215018 -77.907164 36.736761 43.078605 -57.637392 -7.922115 9.596586 47.163013 -6.263887 -2.434928 -19.536056 0.000000 -0.000000 0.000000 -44.512761 -29.176476 -46.743860 -3.950219 -3.610710 2.637519 9.523527 -7.567161 -5.533461 0.000000 -0.000000 0.000000 4.485343 -8.456045 54.192415 9.637637 -10.934285 -3.206266 5.417168 -5.459229 3.510186 -8.518320 -5.696959 22.816672 11.596870 -9.118267 4.181869 -8.242833 -17.381231 13.392849 -16.013452 -1.390791 -14.526599 -6.039074 -12.609637 33.539662 -3.902111 -16.692765 12.971763 14.290996 9.970312 13.505860 25.028643 -6.293727 -19.262028 -40.833331 50.880841 -34.045751 -8.332665 28.942173 -9.123070 
-0.215445 0.761523 0.346071 43.008808 27.729181 -78.450480 35.361084 42.999974 -59.793482 -6.738948 10.589137 27.174124 -8.545083 -3.270745 -16.435923 0.000000 -0.000000 0.000000 -45.021690 -28.186097 -39.688028 -3.596808 -4.834238 2.599194 10.035025 -7.001953 -5.971252 0.000000 -0.000000 0.000000 4.002307 -4.709006 53.694273 7.905600 -10.380780 -1.514765 5.452275 -3.094718 3.035633 -8.459348 -4.998686 24.793785 12.631337 -10.435223 4.958263 -7.756210 -16.344591 11.161718 -14.798463 0.608936 -14.940475 -5.787357 -13.892983 29.903880 -0.938522 -17.181684 12.033168 14.467153 11.509312 15.151750 25.267342 -5.049902 -20.140702 -45.775278 52.771768 -38.288132 -15.157732 30.989694 -10.151387 
